Braveheart*1995*[BluRay][1080p][ENG, POL]

General information:
Country: USA
Release: 18 May 1995 (Seattle International Film Festival)
Genre: Action, Biography, Drama, History, War 
Director: Mel Gibson
Screenplay: Randall Wallace
Original Music: James Horner
Cinematography by: John Toll
Duration: 2h 57mn
Language: English, Polish
Subtitles: English, Polish
Rating: 8.5/10 - 57842 votes 

Cast:
James Robinson  ...  Young William Wallace  
Sean Lawlor  ...  Malcolm Wallace 
Mel Gibson ...  William Wallace  
Sandy Nelson  ...  John Wallace  
James Cosmo  ...  Campbell  
Sean McGinley  ...  MacClannough  
Alan Tall  ...  Elder Stewart  
Andrew Weir  ...  Young Hamish  
Gerda Stevenson  ...  Mother MacClannough  
Ralph Riach  ...  Priest No. 1  
Mhairi Calvey  ...  Young Murron  
Brian Cox  ...  Argyle Wallace  
Patrick McGoohan  ...  Longshanks - King Edward I  
Peter Hanly  ...  Prince Edward  
Sophie Marceau  ...  Princess Isabelle  
Stephen Billington  ...  Phillip  

Plot:
William Wallace, a commoner, unites the 13th Century Scots in their battle to overthrow English rule.

Specifications:
General
Format                           : Matroska
Overall bit rate                 : 16.9 Mbps

Video
Format                           : AVC
Format/Info                      : Advanced Video Codec
Format profile                   : High@L4.1
Format settings, CABAC           : Yes
Format settings, ReFrames        : 5 frames
Muxing mode                      : Container profile=Unknown@4.1
Codec ID                         : V_MPEG4/ISO/AVC
Bit rate                         : 15.0 Mbps
Width                            : 1 920 pixels
Height                           : 818 pixels
Display aspect ratio             : 2.35:1
Frame rate                       : 23.976 fps

Audio 1
Format                           : DTS
Format/Info                      : Digital Theater Systems
Codec ID                         : A_DTS
Bit rate mode                    : Constant
Bit rate                         : 1 510 Kbps
Channel(s)                       : 6 channels
Channel positions                : Front: L C R, Side: L R, LFE
Sampling rate                    : 48.0 KHz
Bit depth                        : 24 bits
Stream size                      : 1.87 GiB (9%)
Title                            : English_A

Audio 2
Format                           : AC-3
Format/Info                      : Audio Coding 3
Mode extension                   : CM (complete main)
Codec ID                         : A_AC3
Bit rate mode                    : Constant
Bit rate                         : 384 Kbps
Channel(s)                       : 6 channels
Channel positions                : Front: L C R, Side: L R, LFE
Sampling rate                    : 48.0 KHz
Stream size                      : 488 MiB (2%)
Language                         : Polish

Text 1
Format                           : UTF-8
Codec ID                         : S_TEXT/UTF8
Codec ID/Info                    : UTF-8 Plain Text
Title                            : Englis_SUB

Text 2
Format                           : UTF-8
Codec ID                         : S_TEXT/UTF8
Codec ID/Info                    : UTF-8 Plain Text
Title                            : Polish_SUB
